<?xml version="1.0" encoding="UTF-8" standalone="no"?>
<svg
   xmlns:dc="http://purl.org/dc/elements/1.1/"
   xmlns:cc="http://creativecommons.org/ns#"
   xmlns:rdf="http://www.w3.org/1999/02/22-rdf-syntax-ns#"
   xmlns:svg="http://www.w3.org/2000/svg"
   xmlns="http://www.w3.org/2000/svg"
   xmlns:sodipodi="http://sodipodi.sourceforge.net/DTD/sodipodi-0.dtd"
   xmlns:inkscape="http://www.inkscape.org/namespaces/inkscape"
   viewBox="0 0 24 21.649282"
   version="1.1"
   id="svg23"
   sodipodi:docname="logo.svg"
   inkscape:version="0.92.4 (5da689c313, 2019-01-14)"
   width="24"
   height="21.649282">
  <metadata
     id="metadata27">
    <rdf:RDF>
      <cc:Work
         rdf:about="">
        <dc:format>image/svg+xml</dc:format>
        <dc:type
           rdf:resource="http://purl.org/dc/dcmitype/StillImage" />
        <dc:title>shotgun2</dc:title>
      </cc:Work>
    </rdf:RDF>
  </metadata>
  <sodipodi:namedview
     pagecolor="#ffffff"
     bordercolor="#666666"
     borderopacity="1"
     objecttolerance="10"
     gridtolerance="10"
     guidetolerance="10"
     inkscape:pageopacity="0"
     inkscape:pageshadow="2"
     inkscape:window-width="958"
     inkscape:window-height="1028"
     id="namedview25"
     showgrid="false"
     inkscape:zoom="1.1125147"
     inkscape:cx="-53.561719"
     inkscape:cy="-31.308955"
     inkscape:window-x="0"
     inkscape:window-y="26"
     inkscape:window-maximized="0"
     inkscape:current-layer="svg23" />
  <defs
     id="defs4">
    <style
       id="style2">.cls-1{opacity:0.5;}.cls-2{fill:#fe6e3a;}</style>
  </defs>
  <title
     id="title6">shotgun2</title>
  <g
     id="Слой_3"
     data-name="Слой 3"
     transform="matrix(0.05265708,0,0,0.05265708,-5.3824932,-5.4373803)">
    <path
       class="cls-2"
       d="m 556.88,122.32 -2.42,-3.89 A 32.06,32.06 0 0 0 510.32,108.07 L 228.51,282.74 a 7.48,7.48 0 0 0 -2.42,10.31 l 15.36,24.78 a 7.48,7.48 0 0 0 10.31,2.42 L 554.45,132.64 a 7.51,7.51 0 0 0 2.43,-10.32 z m -54.42,6.23 -230.39,142.81 a 2.5016045,2.5016045 0 1 1 -2.64,-4.25 L 499.83,124.3 a 2.5,2.5 0 0 1 2.63,4.25 z"
       id="path8"
       inkscape:connector-curvature="0"
       style="fill:#fe6e3a" />
    <path
       class="cls-2"
       d="m 241.23,371.63 c 0,0 -2.07,12.44 13.48,15 0,0 4.14,0.52 5.7,4.15 1.56,3.63 -7.78,4.14 -7.78,4.14 0,0 -6.73,-0.52 -11.4,-4.66 -4.67,-4.14 -8.81,-11.92 -8.81,-14 0,-2.08 8.81,-4.63 8.81,-4.63 z"
       id="path10"
       inkscape:connector-curvature="0"
       style="fill:#fe6e3a" />
    <path
       class="cls-2"
       d="m 229.19,377.18 c 0,0 -9.24,8.58 1.49,20.13 0,0 3,2.94 2,6.76 -1,3.82 -8.68,-1.47 -8.68,-1.47 0,0 -5,-4.52 -6.17,-10.65 -1.17,-6.13 0.3,-14.82 1.56,-16.46 1.26,-1.64 9.8,1.69 9.8,1.69 z"
       id="path12"
       inkscape:connector-curvature="0"
       style="fill:#fe6e3a" />
    <path
       class="cls-2"
       d="M 321.79,202.52 H 552.2 v 0.1 a 32.12,32.12 0 0 1 -32.12,32.12 H 321.79 Z"
       transform="rotate(-31.79,437.0124,218.63504)"
       id="path14"
       inkscape:connector-curvature="0"
       style="fill:#fe6e3a" />
    <path
       class="cls-2"
       d="m 363.2,272.57 -5.62,-9.36 a 12.77,12.77 0 0 0 -17.9,-4.34 l -85,54.42 a 0.53,0.53 0 0 1 -0.74,-0.18 l -20.57,-34.28 a 5.2,5.2 0 0 0 -7.3,-1.77 l -11.76,7.52 a 18.17,18.17 0 0 0 -5.57,24.55 L 241.05,363 c 2.3,3.82 34.73,-13.94 35,-14.1 l 81.71,-52.3 a 17.77,17.77 0 0 0 5.44,-24.03 z"
       id="path16"
       inkscape:connector-curvature="0"
       style="fill:#fe6e3a" />
    <path
       class="cls-2"
       d="m 206.48,296.27 c 0,0 4.7,18.36 -20.17,39.09 -24.87,20.73 -56,27.17 -78.25,105.19 -1,3.63 -10.36,52.34 -3.11,67.88 3.68,7.88 16.63,6.06 23.37,5 C 140,511.6 149,510.44 159,504 c 1.81,-1.17 5,-4 5,-7 0,-22.13 -4.24,-42.12 7.84,-62.07 A 194.31,194.31 0 0 1 192.38,407 c 14.5,-16.44 31.11,-31 48.67,-44.07 z"
       id="path18"
       inkscape:connector-curvature="0"
       style="fill:#fe6e3a" />
    <path
       class="cls-2"
       d="M 285.69,361.72 C 277.08,345.67 255,346.17 233,358 c -22,11.83 -35.73,30.52 -27.11,46.57 8.62,16.05 33.46,19.46 55.5,7.62 22.04,-11.84 32.92,-34.43 24.3,-50.47 z m -28.52,42.63 c -16.08,8.63 -34.22,6.14 -40.51,-5.57 -6.29,-11.71 10.26,-17.57 26.34,-26.2 16.08,-8.63 25.63,-16.79 31.91,-5.08 6.28,11.71 -1.65,28.21 -17.74,36.85 z"
       id="path20"
       inkscape:connector-curvature="0"
       style="fill:#fe6e3a" />
  </g>
</svg>
