<?xml version="1.0" encoding="UTF-8" standalone="no"?>
<svg
   xmlns:dc="http://purl.org/dc/elements/1.1/"
   xmlns:cc="http://creativecommons.org/ns#"
   xmlns:rdf="http://www.w3.org/1999/02/22-rdf-syntax-ns#"
   xmlns:svg="http://www.w3.org/2000/svg"
   xmlns="http://www.w3.org/2000/svg"
   xmlns:sodipodi="http://sodipodi.sourceforge.net/DTD/sodipodi-0.dtd"
   xmlns:inkscape="http://www.inkscape.org/namespaces/inkscape"
   width="24"
   height="24"
   viewBox="0 0 24 24"
   version="1.1"
   id="svg4"
   sodipodi:docname="logo.svg"
   inkscape:version="0.92.3 (2405546, 2018-03-11)">
  <metadata
     id="metadata10">
    <rdf:RDF>
      <cc:Work
         rdf:about="">
        <dc:format>image/svg+xml</dc:format>
        <dc:type
           rdf:resource="http://purl.org/dc/dcmitype/StillImage" />
        <dc:title></dc:title>
      </cc:Work>
    </rdf:RDF>
  </metadata>
  <defs
     id="defs8">
    <clipPath
       clipPathUnits="userSpaceOnUse"
       id="clipPath819">
      <rect
         style="opacity:0.01000001;fill:#fe6e3a;fill-opacity:1"
         id="rect821"
         width="23.949152"
         height="18.661016"
         x="0.050847456"
         y="3.1525424" />
    </clipPath>
  </defs>
  <sodipodi:namedview
     pagecolor="#ffffff"
     bordercolor="#666666"
     borderopacity="1"
     objecttolerance="10"
     gridtolerance="10"
     guidetolerance="10"
     inkscape:pageopacity="0"
     inkscape:pageshadow="2"
     inkscape:window-width="1920"
     inkscape:window-height="1000"
     id="namedview6"
     showgrid="false"
     inkscape:zoom="19.666667"
     inkscape:cx="8.5040573"
     inkscape:cy="16.025372"
     inkscape:window-x="0"
     inkscape:window-y="0"
     inkscape:window-maximized="1"
     inkscape:current-layer="svg4" />
  <path
     d="M19.431 8.657c-1.391-.155-2.937-1.369-3.532-2.653h-7.899v5.113c2.798 0 1.686 3.634 4.996 4.146 1.988.307 3.258-.694 3.381-1.93.198-1.974 1.331-3.725 3.054-4.676zm-9.122-1.699h3.561c.189 0 .343.153.343.343 0 .189-.153.342-.343.342h-3.561v-.685zm0 1.287h3.561c.189 0 .343.153.343.342 0 .189-.153.342-.343.342h-3.561v-.684zm0 1.971v-.685h3.561c.189 0 .343.153.343.343 0 .189-.153.342-.343.342h-3.561zm3.125 4.257c-2.814-.28-2.644-3.545.518-3.057 2.192.34 2.045 3.312-.518 3.057zm-6.434-8.469v2.996h-6.014c-.06-.491-.35-1.006-.986-1.157v-1.839h7zm-4-.734h-2.297v-1.031c0-.188.188-.3.366-.204l1.931 1.235zm14.81 2.07c-.247-.179-.479-.38-.702-.618.529-.297 1.027-.494 1.681-.542.241-.018.349.273.107.376-.486.208-.818.413-1.086.784zm-3.033 5.293c-.326.57-.875 1.146-1.341 1.184-.145.012-.244-.123-.188-.253.107-.247.778-.745.622-1.552.492.08.783.331.907.621zm5.29-3.16c-1.557.802-2.597 2.354-2.738 4.11.777.323 1.671.917 1.671 2.938v2.465c0 .847.34 1.014 1.216 1.014h2.493c.99 0 1.291-.309 1.291-.999 0-1.527-.396-3.828-1.997-6.079-.782-1.101-1.803-1.85-1.936-3.449zm-.63 3.973c-.391 0-.707-.316-.707-.708s.316-.708.707-.708.708.316.708.708-.318.708-.708.708z"
     id="path2"
     style="fill:#fe6e3a;fill-opacity:1"
     clip-path="url(#clipPath819)" />
</svg>
